<?xml version="1.0" encoding="UTF-8"?>
<svg id="Capa_1" data-name="Capa 1" xmlns="http://www.w3.org/2000/svg" viewBox="0 0 378.01 168.48">
  <defs>
    <style>
      .cls-1 {
        fill: #1d1d1b;
      }

      .cls-2 {
        fill: #9a3315;
      }

      .cls-3 {
        fill: none;
        stroke: #9a3315;
        stroke-miterlimit: 10;
      }
    </style>
  </defs>
  <g>
    <path class="cls-3" d="M72.62,84.24c0,.92-.09,1.83-.27,2.7-.94,4.71-4.3,8.54-8.72,10.16-1.46.53-3.05.83-4.7.83s-3.23-.29-4.7-.83c-4.42-1.62-7.78-5.45-8.72-10.16-.17-.87-.27-1.78-.27-2.7,0-1.05.12-2.07.34-3.05,1.04-4.54,4.33-8.23,8.65-9.81,1.46-.53,3.05-.83,4.7-.83s3.23.29,4.7.83c4.31,1.58,7.62,5.26,8.65,9.81.22.98.34,2,.34,3.05Z"/>
    <path class="cls-3" d="M70.97,84.24c0,.81-.08,1.61-.23,2.38-.83,4.14-3.78,7.51-7.67,8.93-1.29.47-2.68.73-4.13.73s-2.84-.26-4.13-.73c-3.89-1.42-6.84-4.79-7.67-8.93-.15-.77-.23-1.56-.23-2.38,0-.92.1-1.82.3-2.68.91-4,3.81-7.24,7.6-8.62,1.29-.47,2.68-.73,4.13-.73s2.84.26,4.13.73c3.79,1.39,6.7,4.63,7.61,8.63.2.86.3,1.76.3,2.68Z"/>
    <path class="cls-3" d="M68.95,84.24c0,.68-.07,1.34-.2,1.98-.69,3.45-3.15,6.25-6.39,7.44-1.07.39-2.23.6-3.44.6s-2.37-.21-3.44-.6c-3.24-1.18-5.69-3.99-6.38-7.44-.13-.64-.2-1.3-.2-1.98,0-.77.09-1.51.25-2.23.76-3.33,3.17-6.03,6.33-7.18,1.07-.39,2.23-.6,3.44-.6s2.37.21,3.44.6c3.16,1.15,5.58,3.85,6.33,7.18.16.72.25,1.47.25,2.23Z"/>
    <path class="cls-3" d="M58.93,97.93c1.65,0,3.23-.29,4.7-.83l-4.7,71.35-4.7-71.35c1.46.53,3.05.83,4.7.83Z"/>
    <path class="cls-3" d="M58.93,70.56c-1.65,0-3.23.29-4.7.83L58.93.03l4.7,71.35c-1.46-.53-3.05-.83-4.7-.83Z"/>
    <path class="cls-3" d="M45.59,81.19c-.22.98-.34,2-.34,3.05,0,.92.09,1.83.27,2.7L.03,84.07l45.56-2.88Z"/>
    <path class="cls-3" d="M72.35,86.94c.17-.87.27-1.78.27-2.7,0-1.05-.12-2.07-.34-3.05l45.55,2.88-45.48,2.87Z"/>
    <path class="cls-3" d="M50.1,96.87l-11.98,8.18,8.18-11.98c1.03,1.48,2.32,2.76,3.8,3.79Z"/>
    <path class="cls-3" d="M79.74,63.43l-8.18,11.98c-1.03-1.48-2.32-2.76-3.79-3.8l11.98-8.18Z"/>
    <path class="cls-3" d="M38.12,63.43l11.98,8.18c-1.48,1.04-2.76,2.32-3.79,3.8l-8.18-11.98Z"/>
    <path class="cls-3" d="M79.74,105.05l-11.98-8.18c1.48-1.03,2.76-2.32,3.8-3.79l8.18,11.98Z"/>
  </g>
  <g>
    <g>
      <path class="cls-1" d="M125.25,29.74c.43,2.94.64,5.73.64,8.37,0,6.6-1.3,12.31-3.91,17.13-1.02,1.91-2.48,3.81-4.36,5.69-1.16,1.16-2.94,2.74-5.35,4.75-.07.07-.5.45-1.29,1.14-.43.36-.79.69-1.09.99l-1.24,1.04c-2.08,1.82-3.22,2.72-3.42,2.72h-.05c-1.85-1.29-4.51-2.38-7.97-3.27-3.4-.86-6.95-1.29-10.65-1.29-3.9,0-7.96.48-12.18,1.44,3.43-3.6,8.22-6.11,14.36-7.53.26-1.02.4-2.16.4-3.42,0-.66-.03-1.35-.1-2.08l-2.23-20.06c-.13-.89-.2-1.83-.2-2.82,0-1.45.15-3.02.45-4.7.43-2.44,1.19-4.64,2.28-6.59,1.32-2.44,3.12-4.42,5.4-5.94-3.17-.23-7.22-1.32-12.16-3.27-4.94-1.95-8.81-5.96-11.61-12.03.2.46,1.6,1.35,4.21,2.65,2.61,1.3,5.73,2.19,9.36,2.65,1.42.2,5.57.42,12.45.67,6.88.25,12.36,1.58,16.42,3.99,2.91,1.75,5.38,4.08,7.43,6.98,2.21,3.17,3.68,7.43,4.41,12.78ZM115.65,54.75c.33-1.82.5-3.9.5-6.24,0-3.73-.43-8.12-1.29-13.17l-.3-1.98-.35-2.03c-.3-1.58-.61-2.95-.94-4.11-.86-3.07-2.1-5.48-3.71-7.23-.86-.89-1.91-1.68-3.17-2.38-1.35-.73-2.59-1.12-3.71-1.19l-3.02-.4c-1.42,2.58-2.13,6.06-2.13,10.45,0,.79.02,1.6.05,2.43l.45,5.2.45,5.2.2,2.23.2,2.23c.13,1.42.2,2.69.2,3.81v.64c-.1,3.37-.83,6.21-2.18,8.52-.92,1.58-1.63,2.72-2.13,3.42.53-.03,1.06-.05,1.58-.05,4.56,0,9.21.91,13.96,2.72,3.1-2.71,4.89-5.4,5.35-8.07Z"/>
      <path class="cls-1" d="M157.94,54.65c0,1.02.18,1.98.54,2.87.3.73.71,1.39,1.24,1.98.59.69,1.19,1.2,1.78,1.54l-7.33,5.45h-.05l-.15-.1-.2-.1-.3-.15-.69-.5-.89-.69c-.69-.59-1.27-1.25-1.73-1.98-.56-.92-.94-1.9-1.14-2.92l-8.86,6.59c-2.87-1.12-4.99-2.76-6.34-4.9-1.06-1.72-1.58-3.68-1.58-5.89v-21.19c0-.79-.18-1.55-.54-2.28-.3-.63-.71-1.2-1.24-1.73-.59-.63-1.19-1.12-1.78-1.49l7.33-5.45c1.06.59,1.98,1.45,2.77,2.58.63.89,1.16,1.93,1.58,3.12.5,1.35.81,2.59.94,3.71v22.88c0,1.39.94,2.62,2.82,3.71l4.8-3.52v-20.65c0-1.02-.2-1.98-.59-2.87-.3-.73-.69-1.39-1.19-1.98-.63-.69-1.24-1.2-1.83-1.54l7.38-5.45h.05l.05.05.1.05.25.15.35.2c.3.2.58.4.84.59.36.26.69.53.99.79.76.76,1.37,1.58,1.83,2.48.56,1.09.84,2.26.84,3.52,0,1.42-.02,9.13-.05,23.13Z"/>
      <path class="cls-1" d="M175.32,54.8c0,2.84,1.19,4.97,3.57,6.39l-7.33,5.45-.05-.05h-.05c-3.43-2.58-5.15-5.83-5.15-9.76v-21.15c0-1.88-.59-3.5-1.78-4.85-.59-.69-1.19-1.2-1.78-1.54l7.33-5.45h.05l.15.1.2.1.3.15c.23.17.48.33.74.5.3.23.58.46.84.69.69.59,1.27,1.26,1.73,1.98.59.89,1.01,1.85,1.24,2.87l8.77-6.54c2.91,1.12,5.02,2.76,6.34,4.9,1.06,1.72,1.58,3.68,1.58,5.89v20.3c0,2.84,1.19,4.97,3.57,6.39l-7.33,5.45-.05-.05h-.05c-3.43-2.58-5.15-5.83-5.15-9.76v-22.43c0-1.39-.94-2.64-2.82-3.76l-4.85,3.52v20.65Z"/>
      <path class="cls-1" d="M225.23,32.37c0,.13.02,6.5.05,19.11.03,12.61.05,19.08.05,19.41,0,3.86-1.78,7.39-5.35,10.6-3.04,2.74-6.09,4.11-9.16,4.11-.53,0-1.04-.03-1.54-.1-2.61-.4-4.82-1.68-6.64-3.86-1.22-1.49-1.83-2.97-1.83-4.46,0-.99.26-1.98.79-2.97.86-1.65,2.16-2.48,3.91-2.48h.3c.46,0,.92.07,1.39.2l.5.2.15.05h.05c-1.19.79-1.85,1.75-1.98,2.87v.35c0,.89.33,1.67.99,2.33.73.73,1.62,1.09,2.67,1.09h.25c1.32-.07,2.58-.71,3.76-1.93,1.68-1.72,2.53-3.75,2.53-6.09v-10.55l-8.72,6.44c-4.49-1.78-7.1-4.72-7.82-8.81h-.05c-.13-.66-.21-1.44-.25-2.33h.05v-17.43c0-1.78.92-3.66,2.77-5.65,1.52-1.62,3.58-3.25,6.19-4.9,3-1.88,6.01-3.45,9.01-4.7.53.2,1.06.45,1.58.74,3.8,1.95,5.91,4.87,6.34,8.77ZM216.12,56.19v-15.7c-.03-2.24-.05-4.13-.05-5.65,0-1.22-.26-2.36-.79-3.42-.46-.56-1.12-1.09-1.98-1.58-3.17,2.41-4.75,4.97-4.75,7.68v18.32c0,1.42.96,2.69,2.87,3.81l4.7-3.47Z"/>
      <path class="cls-1" d="M238.36,49.01c.33,1.16.76,2.26,1.29,3.32.79,1.45,1.73,2.69,2.82,3.71,2.34,2.15,5.3,3.22,8.86,3.22,1.12,0,2.31-.12,3.57-.35l-10.1,7.73c-.43-.03-.87-.08-1.34-.15-.59-.1-1.19-.23-1.78-.4-1.58-.46-3.04-1.16-4.36-2.08-3.76-2.64-6.16-6.95-7.18-12.92-.33-1.78-.5-3.61-.5-5.5,0-2.21.23-4.47.69-6.78,1.72-8.58,6.49-13.9,14.31-15.95l9.9,13.72-.25.2-15.95,12.23ZM239.49,29.5c-1.49,2.54-2.23,5.88-2.23,10,0,1.78.15,3.73.45,5.84l8.52-6.54-6.73-9.31Z"/>
      <path class="cls-1" d="M282.23,59.51l-9.36,7.13c-.43-.03-.87-.08-1.34-.15-.59-.1-1.19-.23-1.78-.4-1.58-.46-3.04-1.16-4.36-2.08-3.76-2.64-6.16-6.93-7.18-12.88-.33-1.78-.5-3.6-.5-5.45,0-2.21.23-4.47.69-6.78.76-3.76,2.13-6.92,4.11-9.46,2.51-3.17,5.91-5.32,10.2-6.44,7.3,2.11,10.94,10.5,10.94,25.16,0,3.33-.18,6.97-.54,10.89l-.89.45ZM275.1,49.35c-.07-13.11-2.58-19.68-7.53-19.71-1.49,2.54-2.23,5.83-2.23,9.85,0,2.44.26,5.13.79,8.07.3,2.31,1.22,4.52,2.77,6.64,1.62,2.21,3.68,3.7,6.19,4.46v-9.31Z"/>
      <path class="cls-1" d="M297.98,54.8c0,2.84,1.19,4.97,3.57,6.39l-7.33,5.45-.05-.05h-.05c-3.43-2.58-5.15-5.83-5.15-9.76v-21.15c0-1.88-.59-3.5-1.78-4.85-.59-.69-1.19-1.2-1.78-1.54l7.33-5.45h.05l.15.1.2.1.3.15c.23.17.48.33.74.5.3.23.58.46.84.69.69.59,1.27,1.26,1.73,1.98.59.89,1.01,1.85,1.24,2.87l8.77-6.54c2.91,1.12,5.02,2.76,6.34,4.9,1.06,1.72,1.58,3.68,1.58,5.89v20.3c0,2.84,1.19,4.97,3.57,6.39l-7.33,5.45-.05-.05h-.05c-3.43-2.58-5.15-5.83-5.15-9.76v-22.43c0-1.39-.94-2.64-2.82-3.76l-4.85,3.52v20.65Z"/>
      <path class="cls-1" d="M336.88,41.16c4.54,2.62,7.01,5.21,7.4,7.75.26,1.52.4,2.89.4,4.11,0,.53-.03,1.04-.1,1.54-.26,2.08-1.01,3.75-2.23,5-.2.17-2.86,2.18-7.97,6.04-.96.69-2.01,1.04-3.17,1.04-1.45,0-3.09-.56-4.9-1.68-3.2-1.95-4.94-4.32-5.2-7.13l6.88-5.1c.23.83.63,1.65,1.19,2.48,1.52,2.18,3.3,3.53,5.35,4.06.36.1.69.15.99.15.92,0,1.6-.4,2.03-1.19.1-.17.18-.41.25-.74l.05-.35v-.35c.03-.2.05-.4.05-.59,0-.3-.03-.58-.1-.84-.59-2.97-2.71-5.37-6.34-7.21-3.63-1.83-5.94-3.11-6.93-3.84-2.51-1.91-3.76-4.14-3.76-6.69v-.54c.17-2.34,1.06-4.29,2.67-5.84l.5-.45,9.56-7.13c.3-.03.61-.05.94-.05,2.01,0,4.03.73,6.04,2.18,2.28,1.62,3.83,3.53,4.65,5.74l-7.08,5.3c0-.13-.5-.84-1.49-2.13-1.09-1.32-2.1-2.24-3.02-2.77-.79-.53-1.83-.86-3.12-.99h-.2c-.36,0-.64.07-.84.2l-.1.1c-.69.53-1.04,1.26-1.04,2.18v.1c.03.33.12.69.25,1.09.1.26.23.54.4.84.79,1.19,3.46,3.1,8,5.72Z"/>
    </g>
    <g>
      <path class="cls-2" d="M364.44,63.36l-4.37,3.33c-.2-.02-.41-.04-.62-.07-.28-.05-.55-.11-.83-.18-.74-.22-1.42-.54-2.03-.97-1.76-1.23-2.87-3.24-3.35-6.01-.15-.83-.23-1.68-.23-2.54,0-1.03.11-2.09.32-3.17.35-1.76.99-3.23,1.92-4.42,1.17-1.48,2.76-2.48,4.76-3.01,3.41.99,5.11,4.9,5.11,11.74,0,1.56-.08,3.25-.25,5.09l-.42.21ZM361.11,58.63c-.03-6.12-1.2-9.19-3.51-9.2-.69,1.19-1.04,2.72-1.04,4.6,0,1.14.12,2.4.37,3.77.14,1.08.57,2.11,1.29,3.1.76,1.03,1.72,1.73,2.89,2.08v-4.35Z"/>
      <path class="cls-2" d="M367.38,48.82h-1.69l.92-2.17h.76l-.02-3.07c0-1.03.25-1.95.76-2.75.62-1,1.6-1.76,2.94-2.29l3.79,2.52c.31-.29.53-.62.67-.99.11-.26.16-.55.16-.86,0-.25-.04-.5-.12-.76.82.39,1.46.92,1.94,1.6.34.48.51.96.51,1.46,0,.11,0,.22-.02.32-.12.77-.65,1.54-1.57,2.31l-.05-.07-3.47-2.31c-.35.22-.66.53-.9.95-.26.42-.39.82-.39,1.2v2.75h2.13l-.92,2.17h-1.2v12.35c0,.88.28,1.63.83,2.27.29.32.58.56.86.72l-3.44,2.54-.02-.02h-.02l-.05-.02-.12-.07-.16-.09c-.14-.09-.27-.18-.39-.28-.17-.12-.32-.25-.46-.39-.35-.34-.64-.72-.86-1.13-.26-.51-.39-1.06-.39-1.64v-14.22Z"/>
    </g>
    <g>
      <path class="cls-1" d="M192.44,107.07c.49,3.33.73,6.49.73,9.48,0,7.48-1.48,13.95-4.43,19.41-1.16,2.17-2.81,4.32-4.94,6.45-1.31,1.31-3.33,3.1-6.06,5.39-.07.07-.56.5-1.46,1.29-.49.41-.9.79-1.23,1.12l-1.4,1.18c-2.36,2.06-3.65,3.09-3.87,3.09h-.06c-2.09-1.46-5.11-2.69-9.03-3.7-3.85-.97-7.87-1.46-12.06-1.46-4.41,0-9.01.54-13.8,1.63,3.89-4.08,9.31-6.92,16.27-8.53.3-1.16.45-2.45.45-3.87,0-.75-.04-1.53-.11-2.36l-2.52-22.72c-.15-1.01-.22-2.08-.22-3.2,0-1.65.17-3.42.5-5.33.49-2.77,1.35-5.25,2.58-7.46,1.5-2.77,3.53-5.01,6.12-6.73-3.59-.26-8.18-1.5-13.77-3.7-5.59-2.21-9.98-6.75-13.16-13.63.22.52,1.81,1.52,4.77,3,2.95,1.48,6.49,2.48,10.6,3,1.61.22,6.31.48,14.11.76,7.8.28,14,1.79,18.6,4.52,3.29,1.98,6.1,4.62,8.42,7.91,2.51,3.59,4.17,8.42,4.99,14.47ZM181.55,135.4c.37-2.06.56-4.41.56-7.07,0-4.23-.49-9.2-1.46-14.92l-.34-2.24-.39-2.3c-.34-1.8-.69-3.35-1.07-4.66-.97-3.48-2.38-6.21-4.21-8.19-.97-1.01-2.17-1.91-3.59-2.69-1.53-.82-2.94-1.27-4.21-1.35l-3.42-.45c-1.61,2.92-2.41,6.86-2.41,11.84,0,.9.02,1.81.06,2.75l.5,5.89.5,5.89.22,2.52.22,2.52c.15,1.61.22,3.05.22,4.32v.73c-.11,3.82-.94,7.03-2.47,9.65-1.05,1.8-1.85,3.09-2.41,3.87.6-.04,1.2-.06,1.8-.06,5.16,0,10.44,1.03,15.82,3.09,3.52-3.07,5.54-6.12,6.06-9.14Z"/>
      <path class="cls-1" d="M206.85,128.9c.37,1.31.86,2.56,1.46,3.76.9,1.65,1.96,3.05,3.2,4.21,2.66,2.43,6,3.65,10.04,3.65,1.27,0,2.62-.13,4.04-.39l-11.45,8.75c-.49-.04-.99-.09-1.51-.17-.67-.11-1.35-.26-2.02-.45-1.8-.52-3.44-1.31-4.94-2.36-4.26-2.99-6.98-7.87-8.13-14.64-.37-2.02-.56-4.1-.56-6.23,0-2.51.26-5.07.79-7.69,1.94-9.72,7.35-15.75,16.21-18.07l11.22,15.54-.28.22-18.07,13.86ZM208.14,106.79c-1.68,2.88-2.52,6.66-2.52,11.33,0,2.02.17,4.23.5,6.62l9.65-7.41-7.63-10.55Z"/>
      <path class="cls-1" d="M247.28,120c5.14,2.97,7.94,5.9,8.39,8.78.3,1.72.45,3.27.45,4.66,0,.6-.04,1.18-.11,1.74-.3,2.36-1.14,4.25-2.52,5.67-.22.19-3.24,2.47-9.03,6.84-1.08.79-2.28,1.18-3.59,1.18-1.65,0-3.5-.64-5.55-1.91-3.63-2.21-5.59-4.9-5.89-8.08l7.8-5.78c.26.94.71,1.87,1.35,2.81,1.72,2.47,3.74,4,6.06,4.6.41.11.79.17,1.12.17,1.05,0,1.81-.45,2.3-1.35.11-.19.21-.47.28-.84l.06-.39v-.39c.04-.22.06-.45.06-.67,0-.34-.04-.65-.11-.95-.67-3.37-3.07-6.09-7.18-8.16s-6.73-3.53-7.85-4.35c-2.84-2.17-4.26-4.69-4.26-7.57v-.62c.19-2.66,1.2-4.86,3.03-6.62l.56-.5,10.83-8.08c.34-.04.69-.06,1.07-.06,2.28,0,4.56.82,6.84,2.47,2.58,1.83,4.34,4,5.27,6.51l-8.02,6c0-.15-.56-.95-1.68-2.41-1.23-1.5-2.38-2.54-3.42-3.14-.9-.6-2.08-.97-3.53-1.12h-.22c-.41,0-.73.08-.95.22l-.11.11c-.79.6-1.18,1.42-1.18,2.47v.11c.04.37.13.79.28,1.23.11.3.26.62.45.95.9,1.35,3.92,3.51,9.06,6.48Z"/>
      <path class="cls-1" d="M274.12,105.5v29.96c0,2.13.67,3.96,2.02,5.5.67.79,1.35,1.37,2.02,1.74l-8.3,6.17-.06-.06h-.11l-.11-.06-.28-.17-.39-.22c-.3-.22-.62-.45-.95-.67-.37-.3-.73-.62-1.07-.95-.9-.82-1.59-1.74-2.08-2.75-.64-1.23-.95-2.56-.95-3.98v-34.5h-4.15l2.24-5.27h1.96c0-2.39-.22-4.1-.67-5.11-.34-.79-.8-1.53-1.4-2.24-.67-.75-1.35-1.31-2.02-1.68l8.36-6.17h.06l.06.06.11.06.28.17.39.22c.34.19.65.41.95.67.37.26.75.56,1.12.9.86.86,1.53,1.78,2.02,2.75.64,1.27.95,2.62.95,4.04v6.34h4.77l-2.24,5.27h-2.52Z"/>
      <path class="cls-1" d="M294.6,135.46c0,2.13.67,3.96,2.02,5.5.67.79,1.35,1.37,2.02,1.74l-8.36,6.17-.06-.06h-.06l-.11-.06-.28-.17-.39-.22c-.34-.22-.65-.45-.95-.67-.37-.3-.73-.62-1.07-.95-.9-.82-1.59-1.74-2.08-2.75-.64-1.23-.95-2.56-.95-3.98v-26.2c0-2.13-.67-3.96-2.02-5.5-.67-.79-1.35-1.37-2.02-1.74l8.3-6.17h.06l.11.06.11.06.28.17.39.22c.3.19.62.41.95.67.37.3.73.6,1.07.9.9.86,1.59,1.78,2.08,2.75.64,1.27.95,2.62.95,4.04v26.2ZM289.04,86.87c.3.49.65.95,1.07,1.4.56.6,1.16,1.1,1.8,1.51,1.2.71,2.51,1.07,3.93,1.07.79,0,1.61-.11,2.47-.34-1.23,2.47-2.88,4.41-4.94,5.83-1.53,1.05-3.07,1.57-4.6,1.57-2.69,0-5.4-1.61-8.13-4.82l8.42-6.23Z"/>
      <path class="cls-1" d="M314.29,135.46c0,3.22,1.35,5.63,4.04,7.24l-8.3,6.17-.06-.06h-.06c-3.89-2.92-5.83-6.6-5.83-11.05v-23.96c0-2.13-.67-3.96-2.02-5.5-.67-.79-1.35-1.37-2.02-1.74l8.3-6.17h.06l.17.11.22.11.34.17c.26.19.54.37.84.56.34.26.65.52.95.79.79.67,1.44,1.42,1.96,2.24.67,1.01,1.14,2.1,1.4,3.25l9.93-7.41c3.29,1.27,5.69,3.12,7.18,5.55,1.2,1.94,1.8,4.17,1.8,6.68v23c0,3.22,1.35,5.63,4.04,7.24l-8.3,6.17-.06-.06h-.06c-3.89-2.92-5.83-6.6-5.83-11.05v-25.41c0-1.57-1.07-2.99-3.2-4.26l-5.5,3.98v23.39Z"/>
      <path class="cls-1" d="M365.85,100.23l.06.06h.06l.11.06.28.17.39.22c.34.22.65.45.95.67.41.3.79.62,1.12.95.86.82,1.55,1.74,2.08,2.75.64,1.23.95,2.56.95,3.98v35.34c-.04,6.13-1.22,11.13-3.53,14.98l-.79,1.18c-.34.56-.69,1.07-1.07,1.51-.94,1.27-1.93,2.34-2.97,3.2-2.43,2.09-5.09,3.14-7.97,3.14-.56,0-1.12-.04-1.68-.11-2.95-.41-5.46-1.85-7.52-4.32-1.38-1.65-2.08-3.31-2.08-4.99,0-1.08.3-2.19.9-3.31.97-1.83,2.45-2.77,4.43-2.81.64,0,1.27.09,1.91.28.22.04.43.09.62.17l.17.11h.06c-1.38.86-2.15,1.93-2.3,3.2v.39c0,.97.37,1.83,1.12,2.58.86.82,1.89,1.23,3.09,1.23h.28c1.5-.07,2.92-.8,4.26-2.19,1.87-1.91,2.81-4.17,2.81-6.79v-10.38l-9.93,7.35c-3.25-1.27-5.65-3.12-7.18-5.55-1.2-1.94-1.8-4.17-1.8-6.68v-24.01c0-.9-.21-1.76-.62-2.58-.34-.67-.8-1.33-1.4-1.96-.67-.71-1.35-1.25-2.02-1.63l8.36-6.23c1.16.71,2.19,1.68,3.09,2.92.71,1.05,1.31,2.23,1.8,3.53.56,1.53.92,3.39,1.07,5.55l-.06,24.52c0,1.61,1.08,3.05,3.25,4.32l5.44-4.1v-23.34c0-2.09-.67-3.93-2.02-5.5-.67-.79-1.37-1.35-2.08-1.68l8.36-6.23Z"/>
    </g>
  </g>
</svg>